<svg width="1280" height="190" viewBox="0 0 1280 190" fill="none" xmlns="http://www.w3.org/2000/svg">
<path d="M1216.28 0C1252.69 0 1280 40.869 1280 95C1280 149.131 1252.69 190 1216.28 190C1179.86 190 1152.55 149.131 1152.55 95C1152.55 40.869 1179.86 0 1216.28 0ZM1216.28 154.815L1215.97 155.085C1223.26 155.085 1240.55 133.974 1240.55 95C1240.55 56.0257 1223.26 34.9145 1216.28 34.9145C1209.3 34.9145 1192 55.755 1192 94.7293C1192 133.704 1209.3 154.815 1216.28 154.815Z" fill="black"/>
<path d="M1106.16 154.815H1159.87V189.729H1067.01V0H1106.16V154.815Z" fill="black"/>
<path d="M938.492 77.1368C978.85 77.4075 1053.8 77.9488 1053.8 133.162C1053.8 189.729 963.374 189.729 924.837 189.729C869.004 189.729 837.446 185.94 812.261 176.467C784.648 165.912 767.655 154.544 765.227 128.832H804.371C805.585 134.245 810.137 138.034 827.433 144.53C846.853 151.838 875.073 154.815 924.534 154.815C998.877 154.815 1014.35 142.906 1014.35 132.892C1014.35 115.57 986.436 112.051 937.885 111.781C933.03 111.781 928.478 111.781 924.23 111.781C919.072 111.781 912.699 111.781 905.72 111.781C852.315 112.322 802.247 110.698 777.061 88.5043C767.655 80.114 762.8 69.2878 762.8 57.379C762.8 4.87187 835.322 0.541382 922.713 0.541382C980.974 0.541382 1020.12 11.0969 1039.23 31.6667C1048.64 41.9516 1051.07 51.9659 1051.37 58.7322H1011.92C1011.62 57.379 1010.71 55.4844 1008.28 53.0485C1002.82 47.906 983.401 35.7266 923.016 35.7266C802.247 35.7266 802.247 50.6126 802.247 57.6496C802.247 60.3562 803.157 61.9801 805.282 63.8747C821.06 77.6781 878.411 77.4075 906.024 77.1368C913.61 77.1368 920.285 77.1368 925.747 77.1368C929.692 77.1368 933.94 77.1368 938.492 77.1368Z" fill="black"/>
<path d="M705.852 0H744.693L711.011 189.729H662.157L646.985 106.638L632.42 189.729H583.566L549.277 0H589.028L608.145 104.744L626.655 0H628.172H667.922L687.039 104.744L705.852 0Z" fill="black"/>
<path d="M487.238 0C523.651 0 550.96 40.869 550.96 95C550.96 149.131 523.651 190 487.238 190C450.825 190 423.515 149.131 423.515 95C423.515 40.869 450.825 0 487.238 0ZM487.238 154.815L486.934 155.085C494.217 155.085 511.513 133.974 511.513 95C511.513 56.0257 494.217 34.9145 487.238 34.9145C480.259 34.9145 462.962 55.755 462.962 94.7293C462.962 133.704 480.259 154.815 487.238 154.815Z" fill="black"/>
<path d="M377.117 154.815H430.826V189.729H337.974V0H377.117V154.815Z" fill="black"/>
<path d="M186.616 110.698L186.313 76.0541H326.806V93.3761C326.806 139.387 282.807 175.114 212.105 186.482C198.754 188.647 184.795 189.729 170.837 189.729C118.645 189.729 64.9363 175.385 32.7716 151.296C11.2273 135.328 0 115.84 0 94.7293C0 41.6809 75.5567 0 172.051 0C221.815 0 268.848 11.3675 301.013 31.396L278.558 60.0855C252.766 44.1168 213.926 34.9145 172.051 34.9145C109.239 34.9145 39.1438 59.5441 39.1438 94.7293C39.1438 105.285 45.5161 115.299 57.9571 124.501C90.1218 148.59 153.541 160.499 205.429 152.108C245.18 145.613 273.097 130.456 283.414 110.698H186.616Z" fill="black"/>
</svg>
